<svg version="1.2" xmlns="http://www.w3.org/2000/svg" viewBox="0 0 395 481" width="395" height="481">
	<style>
		.s0 { fill: #8257e6 } 
	</style>
	<path class="s0" d="m384.75 14.96l-62.02-9.05q-0.58-0.12-1.17-0.1-0.59 0.01-1.16 0.15-0.57 0.14-1.1 0.41-0.53 0.26-0.99 0.63l-26.41 33.98q-0.64 0.78-1.07 1.7-0.43 0.92-0.62 1.91-0.19 0.99-0.14 2.01 0.06 1.01 0.36 1.97c0.73 2.55-1.47 4.71-4.04 4.36l-21.66-4.7q-1.25-0.29-2.54-0.22-1.29 0.08-2.51 0.51-1.22 0.43-2.27 1.18-1.05 0.76-1.85 1.78l-85.87 108.49c-1.46 2.17-4.4 2.9-6.97 1.81l-32.67-14.46q-1.04-0.52-2.19-0.74-1.14-0.22-2.31-0.12-1.16 0.09-2.25 0.49-1.1 0.41-2.05 1.09l-16.52 11.21q-1 0.68-2.14 1.09-1.14 0.4-2.35 0.49-1.2 0.1-2.39-0.12-1.19-0.22-2.29-0.74l-8.08-3.98c-1.21-0.58-2.53-0.89-3.87-0.91-1.35-0.01-2.68 0.26-3.9 0.82-1.23 0.55-2.31 1.36-3.19 2.38-0.88 1.02-1.52 2.22-1.88 3.51l-5.87 25.67c-1.47 6.14 1.1 12.29 6.61 15.55l12.48 7.59 40 24.23 19.44 11.94c5.51 3.25 12.49 2.54 17.26-1.44l32.66-28.22c2.57-2.17 6.6-2.9 9.53-1.08l9.92 5.06q1.19 0.63 2.52 0.87 1.33 0.23 2.67 0.04 1.33-0.2 2.54-0.8 1.21-0.6 2.17-1.55l16.52-15.19q0.94-0.88 2.1-1.45 1.17-0.56 2.44-0.75 1.28-0.2 2.55-0.01 1.28 0.2 2.44 0.76l24.59 11.21c3.67 1.8 8.08 0.72 10.65-2.52l11.38-14.48 86.24-108.85c0.94-1.18 1.57-2.58 1.81-4.07 0.24-1.49 0.1-3.01-0.41-4.43-0.52-1.41-1.39-2.67-2.54-3.66-1.14-0.98-2.52-1.65-4-1.94l-19.09-4.34c-4.03-0.73-5.87-5.8-2.92-8.69l29.72-36.52c2.93-4.35 1.1-9.05-3.3-9.76zm-284.42 219.15c-1.84-1.09-3.68 0.72-2.94 2.53l9.17 23.87c0.74 1.81 0.74 3.62 0.37 5.43l-8.08 31.1c-0.36 2.17 0.37 4.34 1.84 5.43l23.12 17.72c2.21 1.45 5.14 1.45 6.97-0.36l24.23-20.99c1.47-1.08 3.3-1.8 4.77-2.16l27.52-2.9c1.84-0.36 2.57-2.9 0.74-3.98zm-8.08 80.29q-0.6-0.41-1.27-0.68-0.68-0.26-1.39-0.36-0.72-0.09-1.44-0.01-0.72 0.08-1.4 0.34l-19.45 9.39c-1.1 0.36-1.84 1.45-2.57 2.54l-41.48 100.9v0.72c0.38 0.35 0.74 0.73 1.48 0.73l9.53-3.62h1.11c0.37 0.36 0.73 1.08 0.37 1.44l-29.74 48.12c-0.73 1.07 0.75 2.17 1.48 1.07l107.53-106.32q0.36-0.37 0.66-0.79 0.3-0.42 0.53-0.88 0.23-0.45 0.39-0.94 0.17-0.49 0.26-1l2.19-27.48q0.01-0.61-0.11-1.21-0.12-0.6-0.36-1.16-0.23-0.56-0.58-1.06-0.35-0.5-0.79-0.92z"/>
</svg>